<svg width="31" height="28" viewBox="0 0 31 28" fill="none" xmlns="http://www.w3.org/2000/svg">
<path d="M1.2015 13.4114C0.882842 12.6463 0.881168 11.786 1.19685 11.0197C1.51253 10.2533 2.1197 9.64378 2.88479 9.32513L20.1935 2.11613C20.9586 1.79747 21.819 1.7958 22.5853 2.11148C23.3516 2.42716 23.9612 3.03433 24.2798 3.79943L29.0858 15.3386C29.4045 16.1037 29.4062 16.964 29.0905 17.7304C28.7748 18.4967 28.1676 19.1062 27.4025 19.4249L10.0938 26.6339C9.32869 26.9525 8.46835 26.9542 7.70202 26.6385C6.93569 26.3229 6.32615 25.7157 6.0075 24.9506L1.2015 13.4114ZM3.48554 10.7675C3.10299 10.9269 2.79941 11.2316 2.64157 11.6148C2.48373 11.9979 2.48457 12.4281 2.6439 12.8107L3.24464 14.2531L23.4382 5.84257L22.8374 4.40017C22.6781 4.01763 22.3733 3.71404 21.9902 3.5562C21.607 3.39836 21.1768 3.3992 20.7943 3.55853L3.48554 10.7675ZM24.6397 8.72736L4.44614 17.1379L7.44989 24.3498C7.60922 24.7324 7.91399 25.036 8.29715 25.1938C8.68032 25.3516 9.11049 25.3508 9.49304 25.1915L26.8018 17.9825C27.1843 17.8232 27.4879 17.5184 27.6458 17.1352C27.8036 16.7521 27.8028 16.3219 27.6434 15.9393L24.6397 8.72736Z" fill="white"/>
<path d="M7.69084 20.8643C7.53151 20.4818 7.53067 20.0516 7.68851 19.6684C7.84635 19.2853 8.14994 18.9805 8.53248 18.8212L9.97488 18.2204C10.3574 18.0611 10.7876 18.0602 11.1708 18.2181C11.5539 18.3759 11.8587 18.6795 12.018 19.0621L12.6188 20.5044C12.7781 20.887 12.7789 21.3172 12.6211 21.7003C12.4633 22.0835 12.1597 22.3883 11.7771 22.5476L10.3347 23.1483C9.95219 23.3077 9.52201 23.3085 9.13885 23.1507C8.75568 22.9928 8.45092 22.6892 8.29159 22.3067L7.69084 20.8643Z" fill="white"/>
</svg>
