<svg width="12" height="13" viewBox="0 0 12 13" fill="none" xmlns="http://www.w3.org/2000/svg">
<path d="M9.75738 12.9999C9.4213 13.0039 9.08889 12.9278 8.78613 12.7775C8.48338 12.6273 8.21851 12.407 8.01223 12.1339C7.80596 11.8608 7.66388 11.5423 7.59712 11.2033C7.53035 10.8643 7.54071 10.5139 7.62738 10.1797L3.68597 7.86115C3.35348 8.17466 2.93542 8.37544 2.48839 8.4363C2.04135 8.49716 1.58694 8.41517 1.18669 8.20142C0.786435 7.98767 0.45967 7.65249 0.25064 7.24127C0.0416097 6.83004 -0.0395878 6.36264 0.0180419 5.90235C0.0756716 5.44206 0.269344 5.01111 0.572836 4.66786C0.876328 4.32461 1.27498 4.08564 1.71481 3.9833C2.15464 3.88096 2.6144 3.92021 3.03184 4.09572C3.44927 4.27123 3.80423 4.57453 4.04863 4.96455L7.62675 2.85917C7.58046 2.67914 7.55593 2.49393 7.55371 2.30772C7.54934 1.78168 7.7212 1.27017 8.04038 0.859288C8.35955 0.448411 8.80654 0.163273 9.30607 0.0518853C9.8056 -0.0595026 10.3272 0.00966346 10.783 0.247737C11.2387 0.485811 11.6009 0.878251 11.8085 1.35898C12.016 1.83971 12.0563 2.37936 11.9225 2.88707C11.7887 3.39477 11.489 3.83953 11.0739 4.14644C10.6588 4.45336 10.1536 4.60368 9.64338 4.57211C9.13318 4.54054 8.64913 4.32899 8.27274 3.9731L4.40058 6.25085C4.39618 6.41933 4.37351 6.58587 4.33196 6.74852L8.27337 9.06644C8.53717 8.81728 8.85606 8.63813 9.20237 8.54454C9.54868 8.45095 9.91194 8.44574 10.2607 8.52938C10.6094 8.61301 10.933 8.78295 11.2034 9.02447C11.4738 9.26598 11.6829 9.57176 11.8125 9.91528C11.9421 10.2588 11.9883 10.6297 11.9471 10.9957C11.9059 11.3618 11.7785 11.712 11.5761 12.0159C11.3736 12.3198 11.1021 12.5683 10.7851 12.7397C10.4682 12.9112 10.1154 13.0005 9.75738 12.9999ZM9.75738 9.75981C9.5069 9.75981 9.26668 9.86222 9.08957 10.0445C8.91245 10.2268 8.81295 10.474 8.81295 10.7318C8.81295 10.9896 8.91245 11.2369 9.08957 11.4191C9.26668 11.6014 9.5069 11.7038 9.75738 11.7038C10.0079 11.7038 10.2481 11.6014 10.4252 11.4191C10.6023 11.2369 10.7018 10.9896 10.7018 10.7318C10.7018 10.474 10.6023 10.2268 10.4252 10.0445C10.2481 9.86222 10.0079 9.75981 9.75738 9.75981ZM2.20196 5.22375C1.95148 5.22375 1.71126 5.32616 1.53415 5.50845C1.35703 5.69074 1.25753 5.93797 1.25753 6.19577C1.25753 6.45356 1.35703 6.70079 1.53415 6.88308C1.71126 7.06537 1.95148 7.16778 2.20196 7.16778C2.45244 7.16778 2.69265 7.06537 2.86977 6.88308C3.04688 6.70079 3.14638 6.45356 3.14638 6.19577C3.14638 5.93797 3.04688 5.69074 2.86977 5.50845C2.69265 5.32616 2.45244 5.22375 2.20196 5.22375ZM9.75738 1.3357C9.63336 1.3357 9.51054 1.36085 9.39596 1.40969C9.28138 1.45854 9.17727 1.53014 9.08957 1.6204C9.00187 1.71066 8.9323 1.81781 8.88484 1.93574C8.83738 2.05367 8.81295 2.18007 8.81295 2.30772C8.81295 2.43536 8.83738 2.56176 8.88484 2.67969C8.9323 2.79762 9.00187 2.90477 9.08957 2.99503C9.17727 3.08529 9.28138 3.15689 9.39596 3.20574C9.51054 3.25459 9.63336 3.27973 9.75738 3.27973C10.0079 3.27973 10.2481 3.17732 10.4252 2.99503C10.6023 2.81275 10.7018 2.56551 10.7018 2.30772C10.7018 2.04992 10.6023 1.80269 10.4252 1.6204C10.2481 1.43811 10.0079 1.3357 9.75738 1.3357Z" fill="#5389DF"/>
</svg>
